<?xml version="1.0" encoding="UTF-8"?>
<svg id="Camada_1" xmlns="http://www.w3.org/2000/svg" xmlns:xlink="http://www.w3.org/1999/xlink" version="1.1" viewBox="0 0 32 32">
  <!-- Generator: Adobe Illustrator 29.7.1, SVG Export Plug-In . SVG Version: 2.1.1 Build 8)  -->
  <defs>
    <style>
      .st0 {
        fill: url(#Gradiente_sem_nome_11);
      }

      .st1 {
        fill: url(#Gradiente_sem_nome_111);
      }

      .st2 {
        fill: url(#Gradiente_sem_nome_112);
      }

      .st3 {
        fill: #151e43;
      }

      .st4 {
        fill: #a79a8e;
      }
    </style>
    <linearGradient id="Gradiente_sem_nome_11" data-name="Gradiente sem nome 11" x1="20.4" y1="17.7" x2="20.4" y2="6" gradientUnits="userSpaceOnUse">
      <stop offset="0" stop-color="#a79a8e"/>
      <stop offset="1" stop-color="#e1ddd1"/>
    </linearGradient>
    <linearGradient id="Gradiente_sem_nome_111" data-name="Gradiente sem nome 11" x1="-1456.5" y1="17.7" x2="-1456.5" y2="6" gradientTransform="translate(-1444.9) rotate(-180) scale(1 -1)" xlink:href="#Gradiente_sem_nome_11"/>
    <linearGradient id="Gradiente_sem_nome_112" data-name="Gradiente sem nome 11" x1="16" y1="23" x2="16" y2="10.4" xlink:href="#Gradiente_sem_nome_11"/>
  </defs>
  <rect class="st3" width="32" height="32"/>
  <g>
    <polygon class="st4" points="19.3 6 21.5 6 21.5 20.5 19.3 22.7 19.3 6"/>
    <polygon class="st4" points="12.7 6 10.5 6 10.5 20.5 12.7 22.7 12.7 6"/>
    <polygon class="st4" points="16.1 26 17.2 24.9 17.2 6 14.9 6 14.9 24.9 16.1 26"/>
    <polygon class="st0" points="19.3 17.7 21.5 17.7 21.5 8 21.5 6 19.3 8.2 19.3 17.7"/>
    <polygon class="st1" points="12.7 17.7 10.5 17.7 10.5 8 10.5 6 12.7 8.2 12.7 17.7"/>
    <polygon class="st2" points="14.9 21.9 16 23 17.2 21.9 17.2 10.4 16 11.5 14.9 10.4 14.9 21.9"/>
  </g>
</svg>